<svg id="组_1131" data-name="组 1131" xmlns="http://www.w3.org/2000/svg" width="30" height="30" viewBox="0 0 30 30">
  <defs>
    <style>
      .cls-1, .cls-2, .cls-3, .cls-4 {
        fill: none;
      }

      .cls-2, .cls-3, .cls-4 {
        stroke: #b72729;
      }

      .cls-2, .cls-4 {
        stroke-linecap: round;
      }

      .cls-2 {
        stroke-width: 2px;
      }

      .cls-5 {
        stroke: none;
      }
    </style>
  </defs>
  <rect id="矩形_935" data-name="矩形 935" class="cls-1" width="30" height="30"/>
  <g id="组_1187" data-name="组 1187" transform="translate(-7 -79.999)">
    <path id="路径_474" data-name="路径 474" class="cls-2" d="M13,0a4.94,4.94,0,0,1,5,5,4.863,4.863,0,0,1-5,5" transform="translate(17 105) rotate(-90)"/>
    <g id="矩形_978" data-name="矩形 978" class="cls-3" transform="translate(15 92)">
      <rect class="cls-5" width="4" height="5" rx="2"/>
      <rect class="cls-1" x="0.5" y="0.5" width="3" height="4" rx="1.5"/>
    </g>
    <g id="矩形_979" data-name="矩形 979" class="cls-3" transform="translate(25 92)">
      <rect class="cls-5" width="4" height="5" rx="2"/>
      <rect class="cls-1" x="0.5" y="0.5" width="3" height="4" rx="1.5"/>
    </g>
    <path id="路径_475" data-name="路径 475" class="cls-2" d="M5,5A4.863,4.863,0,0,0,0,0" transform="translate(27 96.998) rotate(90)"/>
    <path id="路径_476" data-name="路径 476" class="cls-4" d="M3.136,2A1.568,1.568,0,0,1,0,2" transform="translate(20.432 91.216)"/>
  </g>
</svg>
