<svg id="组_1132" data-name="组 1132" xmlns="http://www.w3.org/2000/svg" width="30" height="30" viewBox="0 0 30 30">
  <defs>
    <style>
      .cls-1, .cls-3, .cls-4 {
        fill: none;
      }

      .cls-2 {
        fill: #b72729;
      }

      .cls-2, .cls-3, .cls-4 {
        stroke: #b72729;
      }

      .cls-3, .cls-4 {
        stroke-linecap: round;
      }

      .cls-3 {
        stroke-width: 2px;
      }

      .cls-4 {
        stroke-width: 0.5px;
      }

      .cls-5 {
        stroke: none;
      }
    </style>
  </defs>
  <rect id="矩形_935" data-name="矩形 935" class="cls-1" width="30" height="30"/>
  <g id="组_1190" data-name="组 1190" transform="translate(0.91 -19.116)">
    <g id="组_1189" data-name="组 1189">
      <g id="矩形_980" data-name="矩形 980" class="cls-2" transform="translate(10.124 26.578) rotate(-17)">
        <rect class="cls-5" width="5" height="5" rx="2"/>
        <rect class="cls-1" x="0.5" y="0.5" width="4" height="4" rx="1.5"/>
      </g>
      <g id="矩形_981" data-name="矩形 981" class="cls-2" transform="translate(14.528 39.344) rotate(-20)">
        <rect class="cls-5" width="5" height="5" rx="2"/>
        <rect class="cls-1" x="0.5" y="0.5" width="4" height="4" rx="1.5"/>
      </g>
      <path id="路径_478" data-name="路径 478" class="cls-3" d="M16,0A7,7,0,0,0,9,7V9a7,7,0,0,0,7,7" transform="matrix(0.966, -0.259, 0.259, 0.966, -1.604, 30.872)"/>
    </g>
    <g id="组_1188" data-name="组 1188" transform="translate(72.569 -220.781) rotate(22)">
      <path id="路径_479" data-name="路径 479" class="cls-4" d="M6,0A3.694,3.694,0,0,1,9.694,3.694" transform="matrix(0.999, -0.035, 0.035, 0.999, 36.191, 253.245)"/>
      <path id="路径_480" data-name="路径 480" class="cls-4" d="M4,0A2.463,2.463,0,0,1,6.463,2.463" transform="matrix(0.999, -0.035, 0.035, 0.999, 38.233, 254.405)"/>
      <path id="路径_481" data-name="路径 481" class="cls-4" d="M2,0A1.231,1.231,0,0,1,3.231,1.231" transform="matrix(0.999, -0.035, 0.035, 0.999, 40.275, 255.566)"/>
    </g>
  </g>
</svg>
